# 3ds Max Wavefront OBJ Exporter v0.97b - (c)2007 guruware
# File Created: 24.09.2019 18:05:33

mtllib ecopark.mtl

#
# object Eco_Parking
#

v  -7939.3203 1.5000 -5940.7803
v  -8423.9404 1.5000 -6046.4893
v  -9092.8799 1.5000 -2862.9307
v  -8600.2500 1.5000 -2759.6904
v  -6738.2002 1.5000 -5976.3408
v  -7748.3496 1.5000 -3688.1592
v  -7961.5605 1.5000 -2624.8896
v  -7478.9199 1.5000 -2516.4189
v  -7264.3164 1.5000 -3512.8079
v  -6281.5000 1.5000 -5778.4697
v  -9220.5313 1.5000 262.5142
v  -9708.4053 1.5000 163.0566
v  -9890.6465 1.5000 1138.9473
v  -14737.5918 1.5000 12115.1016
v  -14278.8555 1.5000 12313.0820
v  -9445.2881 1.5000 1322.5171
v  -8601.4492 1.5000 392.1167
v  -10454.0000 1.5000 9366.0801
v  -10454.0010 1.5000 12465.2988
v  -9976.2607 1.5000 12465.3027
v  -9975.1045 1.5000 9367.7021
v  -8107.3525 1.5000 489.6338
v  -10521.6426 1.5000 13324.8594
v  -10510.9023 1.5000 12821.1660
v  -14289.7021 1.5000 12580.7285
v  -14309.1895 1.5000 13089.9043
v  3834.5313 1.5000 -8506.3027
v  3657.9551 1.5000 -8044.6973
v  6205.9648 1.5000 -7045.7246
v  6385.3809 1.5000 -7501.1914
v  3558.0918 1.5000 -7852.3428
v  3033.9004 1.5000 -7852.3447
v  3047.4385 1.5000 -1336.3804
v  2849.4531 1.5000 -382.7017
v  3337.1592 1.5000 -279.1641
v  3559.9805 1.5000 -1377.1563
v  4616.0703 1.5000 -3180.3633
v  3986.7695 1.5000 -145.5469
v  4485.9980 1.5000 -42.0137
v  5138.5166 1.5000 -2971.6853
v  6699.7559 1.5000 -6693.4365
v  6245.4434 1.5000 -6893.5781
v  1830.1504 1.5000 4455.2080
v  2337.4775 1.5000 4562.8652
v  2706.4814 1.5000 2836.6660
v  2209.1514 1.5000 2735.7881
v  3831.1025 1.5000 3073.0752
v  3323.5215 1.5000 2971.8125
v  2956.4893 1.5000 4693.7930
v  3465.8252 1.5000 4792.9043
v  16890.5996 1.5000 1400.7295
v  16890.5996 1.5000 -2659.4697
v  16397.9004 1.5000 -2659.4600
v  16397.5527 1.5000 1396.6641
v  16231.8008 1.5000 2122.8301
v  16726.5996 1.5000 2223.7402
v  17666.1992 1.5000 -2530.8506
v  18170.8008 1.5000 -2330.0107
v  18343.5000 1.5000 -2805.7510
v  17842.8008 1.5000 -2987.6592
v  17319.4004 1.5000 2385.8604
v  17820.5000 1.5000 2486.7402
v  18683.1992 1.5000 -1688.4504
v  18190.1992 1.5000 -1784.4504
v  15520.4023 1.5000 5509.2002
v  15468.6992 1.5000 5765.3994
v  15963.5000 1.5000 5865.5205
v  16013.4023 1.5000 5608.7500
v  15162.0000 1.5000 7227.2100
v  15647.3008 1.5000 7330.7207
v  15909.2012 1.5000 6093.5098
v  15423.0000 1.5000 5993.8594
v  16270.5000 1.5000 7467.1699
v  16763.0000 1.5000 7566.1406
v  17132.0000 1.5000 5841.0898
v  16635.8008 1.5000 5737.6904
# 76 vertices

vn 0.0000 1.0000 -0.0000
vn 0.0000 1.0000 -0.0000
vn 0.0000 1.0000 -0.0000
vn 0.0000 1.0000 -0.0000
vn 0.0000 1.0000 -0.0000
vn 0.0000 1.0000 -0.0000
vn 0.0000 1.0000 -0.0000
vn 0.0000 1.0000 -0.0000
vn 0.0000 1.0000 -0.0000
vn 0.0000 1.0000 -0.0000
vn 0.0000 1.0000 -0.0000
vn 0.0000 1.0000 -0.0000
vn 0.0000 1.0000 -0.0000
vn 0.0000 1.0000 -0.0000
vn 0.0000 1.0000 -0.0000
vn 0.0000 1.0000 -0.0000
vn 0.0000 1.0000 -0.0000
vn 0.0000 1.0000 -0.0000
vn 0.0000 1.0000 -0.0000
vn 0.0000 1.0000 -0.0000
vn 0.0000 1.0000 -0.0000
vn 0.0000 1.0000 -0.0000
vn 0.0000 1.0000 -0.0000
vn 0.0000 1.0000 -0.0000
vn 0.0000 1.0000 -0.0000
vn 0.0000 1.0000 -0.0000
vn 0.0000 1.0000 -0.0000
vn 0.0000 1.0000 -0.0000
vn 0.0000 1.0000 -0.0000
vn 0.0000 1.0000 -0.0000
vn 0.0000 1.0000 -0.0000
vn 0.0000 1.0000 -0.0000
vn 0.0000 1.0000 -0.0000
vn 0.0000 1.0000 -0.0000
vn 0.0000 1.0000 -0.0000
vn 0.0000 1.0000 -0.0000
vn 0.0000 1.0000 -0.0000
vn 0.0000 1.0000 -0.0000
vn 0.0000 1.0000 -0.0000
vn 0.0000 1.0000 -0.0000
vn 0.0000 1.0000 -0.0000
vn 0.0000 1.0000 -0.0000
vn 0.0000 1.0000 -0.0000
vn 0.0000 1.0000 -0.0000
vn 0.0000 1.0000 -0.0000
vn 0.0000 1.0000 -0.0000
vn 0.0000 1.0000 -0.0000
vn 0.0000 1.0000 -0.0000
vn 0.0000 1.0000 -0.0000
vn 0.0000 1.0000 -0.0000
vn 0.0000 1.0000 -0.0000
vn 0.0000 1.0000 -0.0000
vn 0.0000 1.0000 -0.0000
vn 0.0000 1.0000 -0.0000
vn 0.0000 1.0000 -0.0000
vn 0.0000 1.0000 -0.0000
vn 0.0000 1.0000 -0.0000
vn 0.0000 1.0000 -0.0000
vn 0.0000 1.0000 -0.0000
vn 0.0000 1.0000 -0.0000
vn 0.0000 1.0000 -0.0000
vn 0.0000 1.0000 -0.0000
vn 0.0000 1.0000 -0.0000
vn 0.0000 1.0000 -0.0000
vn 0.0000 1.0000 -0.0000
vn 0.0000 1.0000 -0.0000
vn 0.0000 1.0000 -0.0000
vn 0.0000 1.0000 -0.0000
vn 0.0000 1.0000 -0.0000
vn 0.0000 1.0000 -0.0000
vn 0.0000 1.0000 -0.0000
vn 0.0000 1.0000 -0.0000
vn 0.0000 1.0000 -0.0000
vn 0.0000 1.0000 -0.0000
vn 0.0000 1.0000 -0.0000
vn 0.0000 1.0000 -0.0000
vn 0.0000 1.0000 -0.0000
vn 0.0000 1.0000 -0.0000
vn 0.0000 1.0000 -0.0000
vn 0.0000 1.0000 -0.0000
vn 0.0000 1.0000 -0.0000
vn 0.0000 1.0000 -0.0000
vn 0.0000 1.0000 -0.0000
vn 0.0000 1.0000 -0.0000
vn 0.0000 1.0000 -0.0000
vn 0.0000 1.0000 -0.0000
vn 0.0000 1.0000 -0.0000
vn 0.0000 1.0000 -0.0000
vn 0.0000 1.0000 -0.0000
vn 0.0000 1.0000 -0.0000
vn 0.0000 1.0000 -0.0000
vn 0.0000 1.0000 -0.0000
vn 0.0000 1.0000 -0.0000
vn 0.0000 1.0000 -0.0000
vn 0.0000 1.0000 -0.0000
vn 0.0000 1.0000 -0.0000
vn 0.0000 1.0000 -0.0000
vn 0.0000 1.0000 -0.0000
vn 0.0000 1.0000 -0.0000
vn 0.0000 1.0000 -0.0000
vn 0.0000 1.0000 -0.0000
vn 0.0000 1.0000 -0.0000
vn 0.0000 1.0000 -0.0000
vn 0.0000 1.0000 -0.0000
vn 0.0000 1.0000 -0.0000
vn 0.0000 1.0000 -0.0000
vn 0.0000 1.0000 -0.0000
vn 0.0000 1.0000 -0.0000
vn 0.0000 1.0000 -0.0000
vn 0.0000 1.0000 -0.0000
vn 0.0000 1.0000 -0.0000
vn 0.0000 1.0000 -0.0000
vn 0.0000 1.0000 -0.0000
vn 0.0000 1.0000 -0.0000
vn 0.0000 1.0000 -0.0000
vn 0.0000 1.0000 -0.0000
vn 0.0000 1.0000 -0.0000
vn 0.0000 1.0000 -0.0000
vn 0.0000 1.0000 -0.0000
vn 0.0000 1.0000 -0.0000
vn 0.0000 1.0000 -0.0000
vn 0.0000 1.0000 -0.0000
vn 0.0000 1.0000 -0.0000
vn 0.0000 1.0000 -0.0000
vn 0.0000 1.0000 -0.0000
vn 0.0000 1.0000 -0.0000
vn 0.0000 1.0000 -0.0000
vn 0.0000 1.0000 -0.0000
vn 0.0000 1.0000 -0.0000
vn 0.0000 1.0000 -0.0000
vn 0.0000 1.0000 -0.0000
vn 0.0000 1.0000 -0.0000
# 132 vertex normals

vt 0.9277 0.2714 0.0000
vt 0.8908 0.2706 0.0000
vt 0.8975 0.0033 0.0000
vt 0.9350 0.0045 0.0000
vt 0.1456 0.0968 0.0000
vt 0.1486 0.0062 0.0000
vt 0.1860 0.0068 0.0000
vt 0.1843 0.0920 0.0000
vt 0.2230 0.0910 0.0000
vt 0.1854 0.0896 0.0000
vt 0.1892 0.0068 0.0000
vt 0.2252 0.0005 0.0000
vt 0.0005 0.9978 0.0000
vt 0.0218 0.2475 0.0000
vt 0.0753 0.0005 0.0000
vt 0.1098 0.0096 0.0000
vt 0.0564 0.2565 0.0000
vt 0.0378 0.9995 0.0000
vt 0.1086 0.0817 0.0000
vt 0.1108 0.0005 0.0000
vt 0.1485 0.0016 0.0000
vt 0.1455 0.0950 0.0000
vt 0.2622 0.9949 0.0000
vt 0.2692 0.7400 0.0000
vt 0.3072 0.7413 0.0000
vt 0.3037 0.9882 0.0000
vt 0.0569 0.3105 0.0000
vt 0.0958 0.3116 0.0000
vt 0.0926 0.4579 0.0000
vt 0.0545 0.4564 0.0000
vt 0.1303 0.6372 0.0000
vt 0.0915 0.6356 0.0000
vt 0.0948 0.4897 0.0000
vt 0.1337 0.4916 0.0000
vt 0.2619 0.0727 0.0000
vt 0.2252 0.0634 0.0000
vt 0.2258 0.0005 0.0000
vt 0.2644 0.0019 0.0000
vt 0.1007 0.6433 0.0000
vt 0.1387 0.6449 0.0000
vt 0.1288 0.9947 0.0000
vt 0.0915 0.9929 0.0000
vt 0.3049 0.0233 0.0000
vt 0.3056 0.0005 0.0000
vt 0.3455 0.0021 0.0000
vt 0.3446 0.0249 0.0000
vt 0.1338 0.5352 0.0000
vt 0.1713 0.5363 0.0000
vt 0.1688 0.6416 0.0000
vt 0.1313 0.6403 0.0000
vt 0.1399 0.6608 0.0000
vt 0.1765 0.6604 0.0000
vt 0.1767 0.9936 0.0000
vt 0.1401 0.9936 0.0000
vt 0.0904 0.4646 0.0000
vt 0.0906 0.9949 0.0000
vt 0.0517 0.9949 0.0000
vt 0.0524 0.4613 0.0000
vt 0.3444 0.7628 0.0000
vt 0.3445 0.9885 0.0000
vt 0.3077 0.9881 0.0000
vt 0.3079 0.7628 0.0000
vt 0.2652 0.0469 0.0000
vt 0.2650 0.0005 0.0000
vt 0.3042 0.0016 0.0000
vt 0.3031 0.0471 0.0000
vt 0.2224 0.9948 0.0000
vt 0.2225 0.6832 0.0000
vt 0.2600 0.6849 0.0000
vt 0.2602 0.9958 0.0000
vt 0.3859 0.7845 0.0000
vt 0.3896 0.9879 0.0000
vt 0.3525 0.9887 0.0000
vt 0.3475 0.7827 0.0000
vt 0.9627 0.9816 0.0000
vt 0.9392 0.0012 0.0000
vt 0.9761 0.0005 0.0000
vt 0.9984 0.9815 0.0000
vt 0.2216 0.9926 0.0000
vt 0.1847 0.9933 0.0000
vt 0.1797 0.6604 0.0000
vt 0.2215 0.6612 0.0000
vt 0.3902 0.9888 0.0000
vt 0.3902 0.8424 0.0000
vt 0.4278 0.8428 0.0000
vt 0.4282 0.9889 0.0000
# 86 texture coords

o Eco_Parking
g Eco_Parking
usemtl ecopark
s off
f 3/3/1 4/4/2 1/1/3 
f 1/1/4 2/2/5 3/3/6 
f 7/6/7 8/7/8 9/8/9 
f 9/8/10 6/5/11 7/6/12 
f 11/9/13 12/10/14 13/11/15 
f 13/11/16 16/12/17 11/9/18 
f 21/17/19 18/14/20 19/15/21 
f 19/15/22 20/16/23 21/17/24 
f 24/69/25 25/70/26 26/67/27 
f 26/67/28 23/68/29 24/69/30 
f 28/61/31 29/62/32 30/59/33 
f 30/59/34 27/60/35 28/61/36 
f 34/20/37 35/21/38 36/22/39 
f 36/22/40 33/19/41 34/20/42 
f 41/79/43 42/80/44 37/81/45 
f 37/81/46 40/82/47 41/79/48 
f 46/30/49 43/27/50 44/28/51 
f 44/28/52 45/29/53 46/30/54 
f 50/34/55 47/31/56 48/32/57 
f 48/32/58 49/33/59 50/34/60 
f 54/51/61 51/52/62 52/53/63 
f 52/53/64 53/54/65 54/51/66 
f 59/65/67 60/66/68 57/63/69 
f 57/63/70 58/64/71 59/65/72 
f 64/42/73 61/39/74 62/40/75 
f 62/40/76 63/41/77 64/42/78 
f 68/46/79 65/43/80 66/44/81 
f 66/44/82 67/45/83 68/46/84 
f 72/50/85 69/47/86 70/48/87 
f 70/48/88 71/49/89 72/50/90 
f 74/85/91 75/86/92 76/83/93 
f 76/83/94 73/84/95 74/85/96 
f 38/24/97 39/25/98 40/26/99 
f 40/26/100 37/23/101 38/24/102 
f 36/55/103 31/56/104 32/57/105 
f 32/57/106 33/58/107 36/55/108 
f 9/71/109 10/72/110 5/73/111 
f 5/73/112 6/74/113 9/71/114 
f 13/75/115 14/76/116 15/77/117 
f 15/77/118 16/78/119 13/75/120 
f 21/17/121 22/18/122 17/13/123 
f 17/13/124 18/14/125 21/17/126 
f 54/36/127 55/37/128 56/38/129 
f 56/38/130 51/35/131 54/36/132 
# 0 polygons - 44 triangles

