# 3ds Max Wavefront OBJ Exporter v0.97b - (c)2007 guruware
# File Created: 05.10.2019 16:21:31

mtllib ecopark.mtl

#
# object Eco_Parking
#

v  -4546.4399 0.7500 -1431.4653
v  -4300.1250 0.7500 -1379.8452
v  -3969.6602 0.7500 -2970.3901
v  -4211.9702 0.7500 -3023.2446
v  -3980.7803 0.7500 -1312.4448
v  -3739.4600 0.7500 -1258.2095
v  -3632.1582 0.7500 -1756.4039
v  -3874.1748 0.7500 -1844.0796
v  -4610.2656 0.7500 131.2571
v  -4854.2026 0.7500 81.5283
v  -4945.3232 0.7500 569.4736
v  -4722.6440 0.7500 661.2585
v  -4987.5522 0.7500 4683.8511
v  -5227.0000 0.7500 4683.0400
v  -5227.0005 0.7500 6232.6494
v  -4988.1304 0.7500 6232.6514
v  -5255.4512 0.7500 6410.5830
v  -7144.8511 0.7500 6290.3643
v  -7154.5947 0.7500 6544.9521
v  -5260.8213 0.7500 6662.4297
v  1828.9775 0.7500 -4022.3486
v  3102.9824 0.7500 -3522.8623
v  3192.6904 0.7500 -3750.5957
v  1917.2656 0.7500 -4253.1514
v  1424.7266 0.7500 -191.3508
v  1668.5796 0.7500 -139.5820
v  1779.9902 0.7500 -688.5781
v  1523.7192 0.7500 -668.1902
v  3349.8779 0.7500 -3346.7183
v  3122.7217 0.7500 -3446.7891
v  2308.0352 0.7500 -1590.1816
v  2569.2583 0.7500 -1485.8427
v  1104.5757 0.7500 1367.8940
v  915.0752 0.7500 2227.6040
v  1168.7388 0.7500 2281.4326
v  1353.2407 0.7500 1418.3330
v  1732.9126 0.7500 2396.4521
v  1915.5513 0.7500 1536.5376
v  1661.7607 0.7500 1485.9063
v  1478.2446 0.7500 2346.8965
v  8198.7764 0.7500 698.3320
v  8445.2998 0.7500 700.3647
v  8445.2998 0.7500 -1329.7349
v  8198.9502 0.7500 -1329.7300
v  9171.7500 0.7500 -1402.8755
v  8921.4004 0.7500 -1493.8296
v  8833.0996 0.7500 -1265.4253
v  9085.4004 0.7500 -1165.0054
v  9095.0996 0.7500 -892.2252
v  8659.7002 0.7500 1192.9302
v  8910.2500 0.7500 1243.3701
v  9341.5996 0.7500 -844.2252
v  8006.7012 0.7500 2804.3750
v  7760.2012 0.7500 2754.6001
v  7734.3496 0.7500 2882.6997
v  7981.7500 0.7500 2932.7603
v  7711.5000 0.7500 2996.9297
v  7581.0000 0.7500 3613.6050
v  7823.6504 0.7500 3665.3604
v  7954.6006 0.7500 3046.7549
v  8381.5000 0.7500 3783.0703
v  8566.0000 0.7500 2920.5449
v  8317.9004 0.7500 2868.8452
v  8135.2500 0.7500 3733.5850
v  1993.3848 0.7500 -72.7735
v  2242.9990 0.7500 -21.0068
v  1779.0459 0.7500 -3926.1714
v  1516.9502 0.7500 -3926.1724
v  -3140.7500 0.7500 -2889.2349
v  -3369.1001 0.7500 -2988.1704
v  -7368.7959 0.7500 6057.5508
v  -7139.4277 0.7500 6156.5410
v  -4053.6763 0.7500 244.8169
v  -4300.7246 0.7500 196.0583
v  8115.9004 0.7500 1061.4150
v  8363.2998 0.7500 1111.8701
# 76 vertices

vn 0.0000 1.0000 -0.0000
# 1 vertex normals

vt 0.8975 0.0033 0.0000
vt 0.9350 0.0045 0.0000
vt 0.9277 0.2714 0.0000
vt 0.8908 0.2706 0.0000
vt 0.1486 0.0062 0.0000
vt 0.1860 0.0068 0.0000
vt 0.1843 0.0920 0.0000
vt 0.1456 0.0968 0.0000
vt 0.2230 0.0910 0.0000
vt 0.1854 0.0896 0.0000
vt 0.1892 0.0068 0.0000
vt 0.2252 0.0005 0.0000
vt 0.0564 0.2565 0.0000
vt 0.0218 0.2475 0.0000
vt 0.0753 0.0005 0.0000
vt 0.1098 0.0096 0.0000
vt 0.2600 0.6849 0.0000
vt 0.2602 0.9958 0.0000
vt 0.2224 0.9948 0.0000
vt 0.2225 0.6832 0.0000
vt 0.3077 0.9881 0.0000
vt 0.3079 0.7628 0.0000
vt 0.3444 0.7628 0.0000
vt 0.3445 0.9885 0.0000
vt 0.1108 0.0005 0.0000
vt 0.1485 0.0016 0.0000
vt 0.1455 0.0950 0.0000
vt 0.1086 0.0817 0.0000
vt 0.2216 0.9926 0.0000
vt 0.1847 0.9933 0.0000
vt 0.1797 0.6604 0.0000
vt 0.2215 0.6612 0.0000
vt 0.0545 0.4564 0.0000
vt 0.0569 0.3105 0.0000
vt 0.0958 0.3116 0.0000
vt 0.0926 0.4579 0.0000
vt 0.1337 0.4916 0.0000
vt 0.1303 0.6372 0.0000
vt 0.0915 0.6356 0.0000
vt 0.0948 0.4897 0.0000
vt 0.1399 0.6608 0.0000
vt 0.1765 0.6604 0.0000
vt 0.1767 0.9936 0.0000
vt 0.1401 0.9936 0.0000
vt 0.3042 0.0016 0.0000
vt 0.3031 0.0471 0.0000
vt 0.2652 0.0469 0.0000
vt 0.2650 0.0005 0.0000
vt 0.0915 0.9929 0.0000
vt 0.1007 0.6433 0.0000
vt 0.1387 0.6449 0.0000
vt 0.1288 0.9947 0.0000
vt 0.3446 0.0249 0.0000
vt 0.3049 0.0233 0.0000
vt 0.3056 0.0005 0.0000
vt 0.3455 0.0021 0.0000
vt 0.1313 0.6403 0.0000
vt 0.1338 0.5352 0.0000
vt 0.1713 0.5363 0.0000
vt 0.1688 0.6416 0.0000
vt 0.4278 0.8428 0.0000
vt 0.4282 0.9889 0.0000
vt 0.3902 0.9888 0.0000
vt 0.3902 0.8424 0.0000
vt 0.2692 0.7400 0.0000
vt 0.3072 0.7413 0.0000
vt 0.3037 0.9882 0.0000
vt 0.2622 0.9949 0.0000
vt 0.0904 0.4646 0.0000
vt 0.0906 0.9949 0.0000
vt 0.0517 0.9949 0.0000
vt 0.0524 0.4613 0.0000
vt 0.3859 0.7845 0.0000
vt 0.3896 0.9879 0.0000
vt 0.3525 0.9887 0.0000
vt 0.3475 0.7827 0.0000
vt 0.9627 0.9816 0.0000
vt 0.9392 0.0012 0.0000
vt 0.9761 0.0005 0.0000
vt 0.9984 0.9815 0.0000
vt 0.0378 0.9995 0.0000
vt 0.0005 0.9978 0.0000
vt 0.2252 0.0634 0.0000
vt 0.2258 0.0005 0.0000
vt 0.2644 0.0019 0.0000
vt 0.2619 0.0727 0.0000
# 86 texture coords

o Eco_Parking
g Eco_Parking
usemtl ecopark
s off
f 1/1/1 2/2/1 3/3/1 
f 3/3/1 4/4/1 1/1/1 
f 5/5/1 6/6/1 7/7/1 
f 7/7/1 8/8/1 5/5/1 
f 9/9/1 10/10/1 11/11/1 
f 11/11/1 12/12/1 9/9/1 
f 13/13/1 14/14/1 15/15/1 
f 15/15/1 16/16/1 13/13/1 
f 17/17/1 18/18/1 19/19/1 
f 19/19/1 20/20/1 17/17/1 
f 21/21/1 22/22/1 23/23/1 
f 23/23/1 24/24/1 21/21/1 
f 25/25/1 26/26/1 27/27/1 
f 27/27/1 28/28/1 25/25/1 
f 29/29/1 30/30/1 31/31/1 
f 31/31/1 32/32/1 29/29/1 
f 33/33/1 34/34/1 35/35/1 
f 35/35/1 36/36/1 33/33/1 
f 37/37/1 38/38/1 39/39/1 
f 39/39/1 40/40/1 37/37/1 
f 41/41/1 42/42/1 43/43/1 
f 43/43/1 44/44/1 41/41/1 
f 45/45/1 46/46/1 47/47/1 
f 47/47/1 48/48/1 45/45/1 
f 49/49/1 50/50/1 51/51/1 
f 51/51/1 52/52/1 49/49/1 
f 53/53/1 54/54/1 55/55/1 
f 55/55/1 56/56/1 53/53/1 
f 57/57/1 58/58/1 59/59/1 
f 59/59/1 60/60/1 57/57/1 
f 61/61/1 62/62/1 63/63/1 
f 63/63/1 64/64/1 61/61/1 
f 65/65/1 66/66/1 32/67/1 
f 32/67/1 31/68/1 65/65/1 
f 27/69/1 67/70/1 68/71/1 
f 68/71/1 28/72/1 27/69/1 
f 7/73/1 69/74/1 70/75/1 
f 70/75/1 8/76/1 7/73/1 
f 11/77/1 71/78/1 72/79/1 
f 72/79/1 12/80/1 11/77/1 
f 13/13/1 73/81/1 74/82/1 
f 74/82/1 14/14/1 13/13/1 
f 41/83/1 75/84/1 76/85/1 
f 76/85/1 42/86/1 41/83/1 
# 44 faces

