# 3ds Max Wavefront OBJ Exporter v0.97b - (c)2007 guruware
# File Created: 23.09.2019 14:01:18

mtllib el.mtl

#
# object El_Low00
#

v  -594.9507 0.0000 -194.4401
v  590.3494 0.0000 123.1602
v  -594.9507 2183.7202 -194.4398
v  590.3494 2183.7202 123.1605
v  -190.1738 0.0000 596.0310
v  127.4265 0.0000 -589.2690
v  -190.1736 2183.7202 596.0310
v  127.4268 2183.7202 -589.2690
v  -533.6560 2183.7202 271.1384
v  -533.6563 0.0000 271.1381
v  529.0544 0.0000 -342.4183
v  529.0549 2183.7202 -342.4178
v  275.4050 2183.7202 534.7363
v  275.4043 0.0000 534.7365
v  -338.1516 0.0000 -527.9744
v  -338.1511 2183.7202 -527.9745
# 16 vertices

vn -0.2588 -0.0000 0.9659
vn -0.2588 -0.0000 0.9659
vn -0.2588 -0.0000 0.9659
vn -0.2588 -0.0000 0.9659
vn 0.9659 -0.0000 0.2588
vn 0.9659 -0.0000 0.2588
vn 0.9659 -0.0000 0.2588
vn 0.9659 -0.0000 0.2588
vn 0.5000 -0.0000 0.8660
vn 0.5000 -0.0000 0.8660
vn 0.5000 -0.0000 0.8660
vn 0.5000 -0.0000 0.8660
vn 0.8660 -0.0000 -0.5000
vn 0.8660 -0.0000 -0.5000
vn 0.8660 -0.0000 -0.5000
vn 0.8660 -0.0000 -0.5000
# 16 vertex normals

vt 0.0144 0.3976 0.0000
vt 0.0144 0.0098 0.0000
vt 0.2323 0.0098 0.0000
vt 0.2323 0.3976 0.0000
vt 0.2400 0.3976 0.0000
vt 0.2400 0.0098 0.0000
vt 0.4579 0.0098 0.0000
vt 0.4579 0.3976 0.0000
vt 0.0144 0.3976 0.0000
vt 0.0144 0.0098 0.0000
vt 0.2323 0.0098 0.0000
vt 0.2323 0.3976 0.0000
vt 0.2400 0.3976 0.0000
vt 0.2400 0.0098 0.0000
vt 0.4579 0.0098 0.0000
vt 0.4579 0.3976 0.0000
# 16 texture coords

o El_Low00
g El_Low00
usemtl el2
s 2
f 3/1/1 1/2/2 2/3/3 4/4/4 
f 7/5/5 5/6/6 6/7/7 8/8/8 
f 9/9/9 10/10/10 11/11/11 12/12/12 
f 13/13/13 14/14/14 15/15/15 16/16/16 
# 4 polygons

