<svg width="114" height="92" viewBox="0 0 114 92" fill="none" xmlns="http://www.w3.org/2000/svg">
<path d="M114 60.4449L-7.62939e-06 92L4.135e-07 -2.3368e-06L114 7.62939e-06L114 60.4449Z" fill="#E5DF06"/>
<path d="M57.4996 31.0658C61.335 31.0658 64.4441 27.917 64.4441 24.0329C64.4441 20.1487 61.335 17 57.4996 17C53.6643 17 50.5552 20.1487 50.5552 24.0329C50.5552 27.917 53.6643 31.0658 57.4996 31.0658Z" fill="#7740BF"/>
<path d="M59.3563 33.667H55.6436L56.0385 35.9786H58.9613L59.3563 33.667Z" fill="#7740BF"/>
<path d="M70.6328 37.3374L62.0069 33.667L59.4838 39.6359L58.949 36.6434H58.0658H56.9334H56.0194L55.5281 39.6435L55.5308 39.6739L52.9927 33.667L44.2097 37.3374L40 53H45.8334L47.7249 46.5251L48.2194 53H57.4994H66.7798L67.2751 46.5251L69.1658 53H75L70.6328 37.3374ZM61.8299 43.0419L65.0632 40.8271L66.1308 43.0803L61.8299 43.0419Z" fill="#7740BF"/>
</svg>
