<svg width="80" height="65" viewBox="0 0 189 152" fill="none" xmlns="http://www.w3.org/2000/svg">
<path d="M189 99.8654L-1.52588e-05 152L-1.97053e-06 -1.26412e-06L189 1.52588e-05L189 99.8654Z" fill="#7740BF"/>
<path d="M33.9185 41.3392H35.7303C35.8459 42.1893 36.1543 42.8463 36.7326 43.2327C37.3108 43.6191 38.0432 43.8123 38.8913 43.8123C39.3154 43.8123 39.7009 43.7737 40.0863 43.6964C40.4333 43.6191 40.7802 43.4645 41.0501 43.31C41.3199 43.1167 41.5512 42.9235 41.7054 42.653C41.8596 42.3826 41.9367 42.1121 41.9367 41.7643C41.9367 41.2233 41.7825 40.7596 41.4741 40.4505C41.1657 40.1413 40.6646 39.8708 40.0092 39.6776L37.5035 38.9821C36.4627 38.7116 35.6532 38.2479 35.152 37.6683C34.6509 37.0886 34.381 36.3158 34.381 35.3498C34.381 34.8861 34.4967 34.4224 34.6894 33.9973C34.8822 33.5722 35.1906 33.2245 35.5761 32.9153C35.9616 32.6062 36.4242 32.3743 36.9639 32.1811C37.5035 31.9879 38.0818 31.9106 38.7757 31.9106C39.3925 31.9106 39.9707 31.9879 40.5104 32.1425C41.0501 32.2971 41.5127 32.5289 41.9367 32.838C42.3608 33.1472 42.6692 33.5336 42.939 34.0359C43.2088 34.4996 43.363 35.0793 43.4016 35.7362H41.5898C41.5512 35.3111 41.4356 34.9633 41.2814 34.6542C41.1272 34.3837 40.8959 34.1519 40.626 33.9587C40.3562 33.8041 40.0863 33.6882 39.778 33.6109C39.4696 33.5336 39.1226 33.495 38.7757 33.495C37.9661 33.495 37.3108 33.6495 36.8482 33.9973C36.3856 34.3064 36.1543 34.7701 36.1543 35.3498C36.1543 35.968 36.3085 36.3931 36.6555 36.7022C37.0024 37.0114 37.5035 37.2432 38.236 37.4364L40.2791 38.016C40.8188 38.1706 41.3199 38.3638 41.744 38.557C42.168 38.7502 42.5535 39.0207 42.8233 39.2912C43.1317 39.6003 43.3245 39.9481 43.4787 40.3345C43.6329 40.721 43.71 41.1847 43.71 41.7256C43.71 42.3053 43.5943 42.8076 43.3245 43.2713C43.0546 43.735 42.7077 44.1214 42.2837 44.4306C41.8596 44.7397 41.3585 45.0102 40.7417 45.1648C40.1634 45.3193 39.5467 45.4353 38.8913 45.4353C38.236 45.4353 37.6577 45.358 37.0795 45.2034C36.5013 45.0488 36.0001 44.817 35.5375 44.4692C35.0749 44.1214 34.728 43.735 34.4196 43.2327C34.1498 42.653 33.9956 42.0348 33.9185 41.3392Z" fill="#E5DF06"/>
<path d="M75.6289 45.0874L80.0621 32.2197H82.0666L86.4998 45.0874H84.6109L83.5701 41.9188H78.5201L77.4793 45.0874H75.6289ZM79.0212 40.4504H83.1075L81.1029 34.2291H81.0258L79.0212 40.4504Z" fill="#E5DF06"/>
<path d="M118.188 38.7893C118.188 37.7073 118.303 36.7413 118.534 35.9298C118.766 35.0797 119.074 34.3841 119.537 33.7659C119.961 33.1862 120.539 32.7225 121.194 32.4134C121.888 32.1043 122.659 31.9497 123.584 31.9497C124.24 31.9497 124.818 32.027 125.358 32.2202C125.897 32.4134 126.399 32.6453 126.784 32.993C127.169 33.3408 127.516 33.7659 127.786 34.2296C128.056 34.7319 128.172 35.2729 128.21 35.8525H126.437C126.36 35.0797 126.052 34.5001 125.55 34.1136C125.049 33.6886 124.355 33.4954 123.43 33.4954C122.968 33.4954 122.505 33.5727 122.12 33.7272C121.734 33.8818 121.387 34.1136 121.117 34.3841C120.847 34.6546 120.616 35.0024 120.462 35.3888C120.308 35.7752 120.231 36.2003 120.231 36.664V40.6441C120.231 41.1078 120.308 41.5329 120.5 41.8806C120.655 42.267 120.886 42.6148 121.194 42.8853C121.503 43.1558 121.85 43.3877 122.235 43.5422C122.659 43.6968 123.083 43.7741 123.546 43.7741C124.548 43.7741 125.319 43.5036 125.859 42.9626C126.399 42.4216 126.668 41.6488 126.668 40.6441V39.794H123.739V38.171H128.442V45.0493H126.745L126.668 43.6968C126.36 44.1991 125.936 44.5856 125.396 44.8947C124.895 45.2038 124.201 45.3584 123.392 45.3584C122.582 45.3584 121.85 45.2038 121.194 44.8947C120.539 44.5856 119.999 44.1605 119.575 43.5809C119.151 43.0012 118.804 42.3057 118.573 41.4942C118.303 40.6827 118.188 39.794 118.188 38.7893Z" fill="#E5DF06"/>
<path d="M160.129 45.0874L164.563 32.2197H166.567L171 45.0874H169.111L168.071 41.9188H163.021L161.98 45.0874H160.129ZM163.483 40.4504H167.569L165.603 34.2291H165.526L163.483 40.4504Z" fill="#E5DF06"/>
<path d="M33.8032 58.0714C33.8032 57.0281 33.9189 56.0621 34.1116 55.2506C34.3429 54.4005 34.6513 53.7049 35.0753 53.0867C35.4994 52.507 36.0776 52.0433 36.733 51.7342C37.3883 51.4251 38.1978 51.2705 39.0845 51.2705C39.7013 51.2705 40.2795 51.3478 40.8192 51.541C41.3589 51.7342 41.8215 51.9661 42.2455 52.3138C42.631 52.6616 42.978 53.0867 43.2093 53.5504C43.4405 54.0527 43.5947 54.5937 43.6333 55.1733H41.8215C41.7444 54.4005 41.436 53.8209 40.9348 53.4344C40.4337 53.0094 39.7398 52.8162 38.9303 52.8162C38.4677 52.8162 38.0436 52.8935 37.6582 53.048C37.2727 53.2026 36.9257 53.4344 36.6559 53.7049C36.386 53.9754 36.1547 54.3232 36.0005 54.7096C35.8463 55.096 35.7692 55.5211 35.7692 55.9848V59.9649C35.7692 60.4286 35.8463 60.8536 36.0391 61.2014C36.1933 61.5878 36.4246 61.9356 36.733 62.2061C37.0414 62.4766 37.3883 62.7084 37.7738 62.863C38.1593 63.0176 38.5833 63.0949 39.0459 63.0949C39.894 63.0949 40.5879 62.9017 41.1276 62.5152C41.6673 62.1288 41.9757 61.5106 42.0528 60.6218H43.8646C43.826 61.2401 43.6718 61.781 43.4405 62.2834C43.1707 62.7857 42.8238 63.2108 42.4383 63.5586C42.0142 63.9063 41.5131 64.1768 40.9348 64.37C40.3566 64.5632 39.7398 64.6792 39.123 64.6792C38.2749 64.6792 37.504 64.5246 36.8486 64.2155C36.1933 63.9063 35.6536 63.4426 35.191 62.863C34.767 62.2834 34.42 61.5878 34.1887 60.7764C33.9189 59.9649 33.8032 59.0761 33.8032 58.0714Z" fill="#E5DF06"/>
<path d="M80.1777 64.3702V51.5024H81.9895V64.3702H80.1777Z" fill="#E5DF06"/>
<path d="M56.2001 18L43.8258 21.3232L31.4129 24.685L19 28.0082L19.5011 29.7471L31.8755 26.4239L44.2883 23.0621L56.6627 19.7389L56.2001 18Z" fill="#E5DF06"/>
<path d="M118.573 53.1254V51.5024H128.017V53.1254H124.201V64.3702H122.389V53.1254H118.573Z" fill="#E5DF06"/>
<path d="M160.399 51.5024H162.365L165.565 57.4919L168.841 51.5024H170.73L166.451 59.2694V64.3702H164.639V59.2308L160.399 51.5024Z" fill="#E5DF06"/>
<path d="M33.9185 79.9042H35.7303C35.8459 80.7543 36.1543 81.4112 36.7326 81.7976C37.3108 82.184 38.0432 82.3772 38.8913 82.3772C39.3154 82.3772 39.7009 82.3386 40.0863 82.2613C40.4333 82.184 40.7802 82.0295 41.0501 81.8749C41.3199 81.6817 41.5512 81.4885 41.7054 81.218C41.8596 80.9475 41.9367 80.677 41.9367 80.3292C41.9367 79.7882 41.7825 79.3245 41.4741 79.0154C41.1657 78.7063 40.6646 78.4358 40.0092 78.2426L37.5035 77.547C36.4627 77.2765 35.6532 76.8128 35.152 76.2332C34.6509 75.6536 34.381 74.8807 34.381 73.9147C34.381 73.451 34.4967 72.9873 34.6894 72.5622C34.8822 72.1372 35.1906 71.7894 35.5761 71.4803C35.9616 71.1711 36.4242 70.9393 36.9639 70.7461C37.5035 70.5529 38.0818 70.4756 38.7757 70.4756C39.3925 70.4756 39.9707 70.5529 40.5104 70.7074C41.0501 70.862 41.5127 71.0939 41.9367 71.403C42.3608 71.7121 42.6692 72.0985 42.939 72.6009C43.2088 73.0646 43.363 73.6442 43.4016 74.3011H41.5898C41.5512 73.8761 41.4356 73.5283 41.2814 73.2191C41.1272 72.9487 40.8959 72.7168 40.626 72.5236C40.3562 72.369 40.0863 72.2531 39.778 72.1758C39.4696 72.0985 39.1226 72.0599 38.7757 72.0599C37.9661 72.0599 37.3108 72.2145 36.8482 72.5622C36.3856 72.8714 36.1543 73.3351 36.1543 73.9147C36.1543 74.533 36.3085 74.958 36.6555 75.2672C37.0024 75.5763 37.5035 75.8081 38.236 76.0014L40.2791 76.581C40.8188 76.7355 41.3199 76.9288 41.744 77.122C42.168 77.3152 42.5535 77.5857 42.8233 77.8562C43.1317 78.1653 43.3245 78.5131 43.4787 78.8995C43.6329 79.2859 43.71 79.7496 43.71 80.2906C43.71 80.8702 43.5943 81.3725 43.3245 81.8362C43.0546 82.2999 42.7077 82.6864 42.2837 82.9955C41.8596 83.3046 41.3585 83.5751 40.7417 83.7297C40.1634 83.8843 39.5467 84.0002 38.8913 84.0002C38.236 84.0002 37.6577 83.9229 37.0795 83.7683C36.5013 83.6138 36.0001 83.3819 35.5375 83.0341C35.0749 82.6864 34.728 82.3 34.4196 81.7976C34.1498 81.218 33.9956 80.5997 33.9185 79.9042Z" fill="#E5DF06"/>
<path d="M66.4155 83.6524V70.7847H71.2727C72.0437 70.7847 72.6605 70.8619 73.1617 71.0165C73.6628 71.1711 74.0483 71.4029 74.3952 71.7507C74.7036 72.0985 74.9349 72.5235 75.0891 73.0259C75.2433 73.5282 75.2819 74.1079 75.2819 74.6875C75.2819 75.2671 75.2048 75.8467 75.012 76.3491C74.8578 76.8901 74.588 77.3151 74.2025 77.7015C73.5086 78.3971 72.5063 78.7449 71.2727 78.7449H68.1888V83.6524H66.4155ZM68.1888 77.1219H71.9281C72.3521 77.1219 72.6991 76.9673 72.9689 76.6968C73.2388 76.4264 73.3544 76.0786 73.3544 75.6535V73.7601C73.3544 73.335 73.2388 72.9872 72.9689 72.7168C72.6991 72.4463 72.3521 72.3303 71.9281 72.3303H68.1888V77.1219Z" fill="#E5DF06"/>
<path d="M97.0625 83.6524L101.496 70.7847H103.5L107.933 83.6524H106.045L105.004 80.4837H99.9537L98.9129 83.6524H97.0625ZM100.416 78.9767H104.503L102.498 72.7554H102.421L100.416 78.9767Z" fill="#E5DF06"/>
<path d="M129.135 77.3146C129.135 76.2713 129.251 75.3052 129.444 74.4938C129.675 73.6436 129.983 72.9481 130.407 72.3298C130.831 71.7502 131.41 71.2865 132.065 70.9774C132.72 70.6682 133.53 70.5137 134.417 70.5137C135.033 70.5137 135.612 70.591 136.151 70.7842C136.691 70.9774 137.154 71.2092 137.578 71.557C137.963 71.9048 138.31 72.3298 138.541 72.7935C138.773 73.2959 138.927 73.8369 138.965 74.4165H137.154C137.076 73.6436 136.768 73.064 136.267 72.6776C135.766 72.2525 135.072 72.0593 134.262 72.0593C133.8 72.0593 133.376 72.1366 132.99 72.2912C132.605 72.4458 132.258 72.6776 131.988 72.9481C131.718 73.2186 131.487 73.5664 131.333 73.9528C131.178 74.3392 131.101 74.7643 131.101 75.228V79.208C131.101 79.6717 131.178 80.0968 131.371 80.4446C131.525 80.831 131.757 81.1788 132.065 81.4493C132.373 81.7198 132.72 81.9516 133.106 82.1062C133.491 82.2607 133.915 82.338 134.378 82.338C135.226 82.338 135.92 82.1448 136.46 81.7584C136.999 81.372 137.308 80.7537 137.385 79.865H139.197C139.158 80.4832 139.004 81.0242 138.773 81.5265C138.503 82.0289 138.156 82.4539 137.77 82.8017C137.346 83.1495 136.845 83.42 136.267 83.6132C135.689 83.8064 135.072 83.9223 134.455 83.9223C133.607 83.9223 132.836 83.7678 132.181 83.4586C131.525 83.1495 130.986 82.6858 130.523 82.1062C130.099 81.5265 129.752 80.831 129.521 80.0195C129.251 79.2467 129.135 78.3193 129.135 77.3146Z" fill="#E5DF06"/>
<path d="M161.285 83.6524V70.7847H169.805V72.4076H163.097V76.3104H168.957V77.9334H163.097V82.0681H169.805V83.691H161.285V83.6524Z" fill="#E5DF06"/>
</svg>
