# 3ds Max Wavefront OBJ Exporter v0.97b - (c)2007 guruware
# File Created: 05.10.2019 15:07:35

mtllib paporotnik.mtl

#
# object Paporotnik
#

v  -14.8869 0.0000 25.7851
v  88.1328 19.0166 85.2635
v  117.9068 19.0166 33.6936
v  14.8869 0.0000 -25.7849
v  121.1688 7.5384 104.3369
v  150.9427 7.5384 52.7669
v  0.0000 0.0000 29.7740
v  86.6883 40.8573 29.7740
v  86.6883 40.8574 -29.7739
v  0.0000 0.0000 -29.7738
v  121.1105 47.0657 29.7740
v  121.1105 47.0658 -29.7739
v  -14.8869 0.0000 25.7850
v  37.6560 54.2189 56.1207
v  67.4299 54.2189 4.5507
v  14.8870 0.0000 -25.7850
v  59.8284 66.8162 68.9219
v  89.6023 66.8162 17.3519
v  -21.7362 -12.3687 21.8307
v  11.5785 59.3312 41.0649
v  41.3525 59.3312 -10.5051
v  8.0378 -12.3687 -29.7393
v  28.6824 79.9253 50.9398
v  58.4563 79.9253 -0.6302
v  -14.8870 0.0000 -25.7850
v  -117.9069 19.0166 33.6935
v  -88.1329 19.0166 85.2635
v  14.8869 0.0000 25.7850
v  -150.9429 7.5384 52.7668
v  -121.1689 7.5384 104.3369
v  -25.7851 0.0000 -14.8869
v  -69.1292 40.8574 60.1873
v  -17.5592 40.8573 89.9613
v  25.7849 0.0000 14.8870
v  -86.3403 47.0657 89.9978
v  -34.7704 47.0657 119.7719
v  -67.4299 54.2189 4.5507
v  -37.6560 54.2189 56.1208
v  -89.6023 66.8163 17.3519
v  -59.8284 66.8162 68.9220
v  -8.0378 -12.3687 -29.7394
v  -41.3525 59.3312 -10.5051
v  -11.5786 59.3312 41.0648
v  21.7362 -12.3687 21.8306
v  -58.4564 79.9253 -0.6302
v  -28.6824 79.9253 50.9398
v  14.8869 0.0000 -25.7851
v  -88.1329 19.0166 -85.2636
v  -117.9068 19.0166 -33.6936
v  -14.8870 0.0000 25.7849
v  -121.1689 7.5384 -104.3370
v  -150.9428 7.5384 -52.7669
v  -0.0001 0.0000 -29.7740
v  -86.6883 40.8574 -29.7740
v  -86.6883 40.8573 29.7739
v  -0.0001 0.0000 29.7738
v  -121.1106 47.0658 -29.7740
v  -121.1106 47.0657 29.7739
v  14.8869 0.0000 -25.7850
v  -37.6561 54.2189 -56.1207
v  -67.4300 54.2189 -4.5507
v  -14.8870 -0.0000 25.7850
v  -59.8284 66.8163 -68.9219
v  -89.6023 66.8163 -17.3519
v  21.7361 -12.3687 -21.8307
v  -11.5786 59.3312 -41.0649
v  -41.3525 59.3312 10.5051
v  -8.0379 -12.3687 29.7393
v  -28.6824 79.9253 -50.9398
v  -58.4564 79.9253 0.6302
v  29.7740 0.0000 -0.0000
v  29.7741 19.0166 -118.9570
v  -29.7738 19.0166 -118.9570
v  -29.7738 0.0000 -0.0000
v  29.7741 7.5385 -157.1037
v  -29.7738 7.5385 -157.1037
v  25.7851 0.0000 -14.8870
v  -17.5590 40.8574 -89.9613
v  -69.1291 40.8574 -60.1873
v  -25.7849 0.0000 14.8869
v  -34.7702 47.0658 -119.7718
v  -86.3402 47.0658 -89.9978
v  29.7740 0.0000 0.0000
v  29.7740 54.2189 -60.6713
v  -29.7740 54.2189 -60.6713
v  -29.7740 0.0000 0.0000
v  29.7740 66.8163 -86.2738
v  -29.7740 66.8163 -86.2738
v  29.7740 -12.3687 7.9088
v  29.7740 59.3312 -30.5597
v  -29.7738 59.3312 -30.5597
v  -29.7739 -12.3687 7.9088
v  29.7740 79.9253 -50.3096
v  -29.7738 79.9253 -50.3096
v  14.8870 0.0000 25.7851
v  117.9069 19.0166 -33.6934
v  88.1329 19.0166 -85.2634
v  -14.8869 0.0000 -25.7849
v  150.9429 7.5384 -52.7668
v  121.1689 7.5384 -104.3367
v  25.7851 0.0000 14.8870
v  69.1292 40.8574 -60.1872
v  17.5592 40.8574 -89.9612
v  -25.7849 0.0000 -14.8869
v  86.3403 47.0658 -89.9977
v  34.7704 47.0658 -119.7718
v  14.8870 -0.0000 25.7850
v  67.4299 54.2189 -4.5507
v  37.6559 54.2189 -56.1207
v  -14.8869 0.0000 -25.7850
v  89.6023 66.8162 -17.3519
v  59.8283 66.8163 -68.9219
v  8.0378 -12.3687 29.7395
v  41.3525 59.3312 10.5052
v  11.5786 59.3312 -41.0648
v  -21.7362 -12.3687 -21.8305
v  58.4564 79.9253 0.6303
v  28.6824 79.9253 -50.9397
v  -29.7740 0.0000 0.0001
v  -29.7740 19.0166 118.9571
v  29.7739 19.0166 118.9570
v  29.7738 0.0000 0.0000
v  -29.7740 7.5384 157.1038
v  29.7740 7.5384 157.1038
v  -25.7850 0.0000 14.8871
v  17.5592 40.8573 89.9613
v  69.1291 40.8573 60.1874
v  25.7850 0.0000 -14.8869
v  34.7703 47.0657 119.7719
v  86.3402 47.0657 89.9979
v  -29.7739 54.2189 60.6715
v  29.7740 54.2189 60.6714
v  -29.7739 66.8162 86.2738
v  29.7740 66.8162 86.2738
v  -29.7740 -12.3687 -7.9088
v  -29.7740 59.3312 30.5597
v  29.7739 59.3312 30.5597
v  29.7739 -12.3687 -7.9088
v  -29.7740 79.9253 50.3097
v  29.7739 79.9253 50.3096
# 140 vertices

vn -0.1357 0.6788 -0.2325
vn -0.0045 0.6880 -0.0632
vn 0.1172 0.6739 0.0958
vn 0.2437 0.6353 0.2630
vn -0.4263 0.6222 -0.0518
vn -0.3045 0.6552 -0.0546
vn -0.1775 0.6769 -0.0564
vn -0.5145 0.4743 -0.7064
vn -0.4626 0.5249 -0.6434
vn -0.4240 0.5561 -0.5959
vn -0.3624 0.5969 -0.5194
vn -0.6335 0.2909 -0.8453
vn -0.6026 0.3529 -0.8105
vn -0.5879 0.3778 -0.7935
vn -0.5476 0.4352 -0.7461
vn 0.1357 0.6788 -0.2325
vn -0.1172 0.6739 0.0958
vn 0.0045 0.6880 -0.0632
vn -0.2437 0.6353 0.2630
vn 0.1858 0.5606 -0.7690
vn 0.1242 0.6392 -0.5363
vn 0.1530 0.6081 -0.6457
vn 0.0864 0.6676 -0.3916
vn 0.5145 0.4743 -0.7064
vn 0.4240 0.5561 -0.5959
vn 0.4626 0.5249 -0.6434
vn 0.3624 0.5969 -0.5194
vn 0.6335 0.2909 -0.8453
vn 0.5879 0.3778 -0.7935
vn 0.6026 0.3529 -0.8105
vn 0.5476 0.4352 -0.7461
vn 0.1357 0.6699 0.1201
vn 0.0045 0.6877 -0.0514
vn -0.1172 0.6817 -0.2087
vn -0.2437 0.6514 -0.3702
vn 0.4263 0.6222 -0.0518
vn 0.3045 0.6552 -0.0546
vn 0.1775 0.6769 -0.0564
vn 0.5145 0.4403 0.6302
vn 0.4626 0.4943 0.5585
vn 0.4240 0.5280 0.5056
vn 0.3624 0.5730 0.4220
vn 0.6335 0.2490 0.8004
vn 0.6026 0.3131 0.7551
vn 0.5879 0.3389 0.7338
vn 0.5476 0.3990 0.6766
vn 0.0000 0.6516 0.2903
vn 0.0000 0.6872 -0.1913
vn 0.0000 0.6182 -0.6437
vn 0.1858 0.5238 0.6787
vn 0.1530 0.5777 0.5470
vn 0.1242 0.6146 0.4318
vn 0.0864 0.6505 0.2818
vn 0.0000 0.3330 1.0217
vn 0.0000 0.4164 0.9110
vn 0.0000 0.4910 0.7813
vn 0.0000 0.1640 1.1676
vn 0.0000 0.2293 1.1220
vn 0.0000 0.2924 1.0654
vn -0.1357 0.6699 0.1201
vn 0.1172 0.6817 -0.2087
vn -0.0045 0.6877 -0.0514
vn 0.2437 0.6514 -0.3702
vn -0.1858 0.5238 0.6787
vn -0.1242 0.6146 0.4318
vn -0.1530 0.5777 0.5470
vn -0.0864 0.6505 0.2818
vn -0.5145 0.4403 0.6302
vn -0.4240 0.5280 0.5056
vn -0.4626 0.4943 0.5585
vn -0.3624 0.5730 0.4220
vn -0.6335 0.2490 0.8004
vn -0.5879 0.3389 0.7338
vn -0.6026 0.3131 0.7551
vn -0.5476 0.3990 0.6766
vn 0.0000 0.6692 -0.4003
vn 0.0000 0.6803 0.0774
vn 0.0000 0.5879 0.5433
vn -0.1858 0.5606 -0.7690
vn -0.1530 0.6081 -0.6457
vn -0.1242 0.6392 -0.5363
vn -0.0864 0.6676 -0.3916
vn 0.0000 0.3866 -1.0816
vn 0.0000 0.4646 -0.9844
vn 0.0000 0.5330 -0.8667
vn 0.0000 0.2243 -1.1999
vn 0.0000 0.2876 -1.1650
vn 0.0000 0.3480 -1.1188
# 88 vertex normals

vt 1.0000 0.0000 0.0000
vt 1.0000 0.7500 0.0000
vt 0.0000 0.7500 0.0000
vt 0.0000 0.0000 0.0000
vt 1.0000 1.0000 0.0000
vt 0.0000 1.0000 0.0000
# 6 texture coords

o Paporotnik
g Paporotnik
usemtl Paporotnik
s 1
f 1/1/1 2/2/2 3/3/3 
f 3/3/3 4/4/1 1/1/1 
f 3/3/3 2/2/2 5/5/4 
f 5/5/4 6/6/4 3/3/3 
f 7/1/5 8/2/6 9/3/6 
f 9/3/6 10/4/5 7/1/5 
f 9/3/6 8/2/6 11/5/7 
f 11/5/7 12/6/7 9/3/6 
f 13/1/8 14/2/9 15/3/10 
f 15/3/10 16/4/8 13/1/8 
f 15/3/10 14/2/9 17/5/11 
f 17/5/11 18/6/11 15/3/10 
f 19/1/12 20/2/13 21/3/14 
f 21/3/14 22/4/12 19/1/12 
f 21/3/14 20/2/13 23/5/15 
f 23/5/15 24/6/15 21/3/14 
f 25/1/16 26/2/17 27/3/18 
f 27/3/18 28/4/16 25/1/16 
f 27/3/18 26/2/17 29/5/19 
f 29/5/19 30/6/19 27/3/18 
f 31/1/20 32/2/21 33/3/22 
f 33/3/22 34/4/20 31/1/20 
f 33/3/22 32/2/21 35/5/23 
f 35/5/23 36/6/23 33/3/22 
f 25/1/24 37/2/25 38/3/26 
f 38/3/26 28/4/24 25/1/24 
f 38/3/26 37/2/25 39/5/27 
f 39/5/27 40/6/27 38/3/26 
f 41/1/28 42/2/29 43/3/30 
f 43/3/30 44/4/28 41/1/28 
f 43/3/30 42/2/29 45/5/31 
f 45/5/31 46/6/31 43/3/30 
f 47/1/32 48/2/33 49/3/34 
f 49/3/34 50/4/32 47/1/32 
f 49/3/34 48/2/33 51/5/35 
f 51/5/35 52/6/35 49/3/34 
f 53/1/36 54/2/37 55/3/37 
f 55/3/37 56/4/36 53/1/36 
f 55/3/37 54/2/37 57/5/38 
f 57/5/38 58/6/38 55/3/37 
f 59/1/39 60/2/40 61/3/41 
f 61/3/41 62/4/39 59/1/39 
f 61/3/41 60/2/40 63/5/42 
f 63/5/42 64/6/42 61/3/41 
f 65/1/43 66/2/44 67/3/45 
f 67/3/45 68/4/43 65/1/43 
f 67/3/45 66/2/44 69/5/46 
f 69/5/46 70/6/46 67/3/45 
f 71/1/47 72/2/48 73/3/48 
f 73/3/48 74/4/47 71/1/47 
f 73/3/48 72/2/48 75/5/49 
f 75/5/49 76/6/49 73/3/48 
f 77/1/50 78/2/51 79/3/52 
f 79/3/52 80/4/50 77/1/50 
f 79/3/52 78/2/51 81/5/53 
f 81/5/53 82/6/53 79/3/52 
f 83/1/54 84/2/55 85/3/55 
f 85/3/55 86/4/54 83/1/54 
f 85/3/55 84/2/55 87/5/56 
f 87/5/56 88/6/56 85/3/55 
f 89/1/57 90/2/58 91/3/58 
f 91/3/58 92/4/57 89/1/57 
f 91/3/58 90/2/58 93/5/59 
f 93/5/59 94/6/59 91/3/58 
f 95/1/60 96/2/61 97/3/62 
f 97/3/62 98/4/60 95/1/60 
f 97/3/62 96/2/61 99/5/63 
f 99/5/63 100/6/63 97/3/62 
f 101/1/64 102/2/65 103/3/66 
f 103/3/66 104/4/64 101/1/64 
f 103/3/66 102/2/65 105/5/67 
f 105/5/67 106/6/67 103/3/66 
f 107/1/68 108/2/69 109/3/70 
f 109/3/70 110/4/68 107/1/68 
f 109/3/70 108/2/69 111/5/71 
f 111/5/71 112/6/71 109/3/70 
f 113/1/72 114/2/73 115/3/74 
f 115/3/74 116/4/72 113/1/72 
f 115/3/74 114/2/73 117/5/75 
f 117/5/75 118/6/75 115/3/74 
f 119/1/76 120/2/77 121/3/77 
f 121/3/77 122/4/76 119/1/76 
f 121/3/77 120/2/77 123/5/78 
f 123/5/78 124/6/78 121/3/77 
f 125/1/79 126/2/80 127/3/81 
f 127/3/81 128/4/79 125/1/79 
f 127/3/81 126/2/80 129/5/82 
f 129/5/82 130/6/82 127/3/81 
f 86/1/83 131/2/84 132/3/84 
f 132/3/84 83/4/83 86/1/83 
f 132/3/84 131/2/84 133/5/85 
f 133/5/85 134/6/85 132/3/84 
f 135/1/86 136/2/87 137/3/87 
f 137/3/87 138/4/86 135/1/86 
f 137/3/87 136/2/87 139/5/88 
f 139/5/88 140/6/88 137/3/87 
# 96 faces

