# 3ds Max Wavefront OBJ Exporter v0.97b - (c)2007 guruware
# File Created: 18.09.2019 09:18:20

#
# object wrapper8
#

v  144.6508 -9.9866 -329.2338
v  1779.0646 -9.9866 22.6283
v  433.0219 -9.9866 -8444.2441
v  2104.8760 -9.9866 -8439.8838
v  144.6508 2331.0063 -329.2336
v  1779.0645 2331.0063 22.6282
v  433.0219 2331.0063 -8444.2441
v  2104.8760 2331.0063 -8439.8838
v  431.1885 -9.9866 -1641.1143
v  2102.6318 -9.9866 -1479.2668
v  2102.6318 2331.0063 -1479.2670
v  431.1886 2331.0063 -1641.1143
# 12 vertices

vn 0.0000 -1.0000 -0.0000
vn 0.0000 -1.0000 -0.0000
vn 0.0000 -1.0000 -0.0000
vn 0.0000 -1.0000 -0.0000
vn 0.0000 -1.0000 -0.0000
vn 0.0000 -1.0000 -0.0000
vn 0.0000 1.0000 -0.0000
vn 0.0000 1.0000 -0.0000
vn 0.0000 1.0000 -0.0000
vn 0.0000 1.0000 -0.0000
vn 0.0000 1.0000 -0.0000
vn 0.0000 1.0000 -0.0000
vn -0.2079 0.0000 0.9781
vn -0.2079 0.0000 0.9781
vn -0.2079 0.0000 0.9781
vn -0.2079 0.0000 0.9781
vn -0.2079 0.0000 0.9781
vn -0.2079 0.0000 0.9781
vn 0.9945 0.0000 0.1046
vn 0.9945 0.0000 0.1046
vn 0.9781 0.0000 0.2081
vn 0.9781 0.0000 0.2081
vn 0.9781 0.0000 0.2081
vn 0.9945 0.0000 0.1046
vn 0.0000 0.0000 -1.0000
vn 0.0000 0.0000 -1.0000
vn 0.0000 0.0000 -1.0000
vn 0.0000 0.0000 -1.0000
vn 0.0000 0.0000 -1.0000
vn 0.0000 0.0000 -1.0000
vn -0.9944 0.0000 -0.1060
vn -0.9944 0.0000 -0.1060
vn -1.0000 0.0000 -0.0000
vn -1.0000 0.0000 -0.0000
vn -1.0000 0.0000 -0.0000
vn -0.9944 0.0000 -0.1060
vn 0.0000 -1.0000 -0.0000
vn 0.0000 -1.0000 -0.0000
vn 0.0000 -1.0000 -0.0000
vn 0.0000 -1.0000 -0.0000
vn 0.0000 -1.0000 -0.0000
vn 0.0000 -1.0000 -0.0000
vn 0.0000 1.0000 -0.0000
vn 0.0000 1.0000 -0.0000
vn 0.0000 1.0000 -0.0000
vn 0.0000 1.0000 -0.0000
vn 0.0000 1.0000 -0.0000
vn 0.0000 1.0000 -0.0000
vn 1.0000 0.0000 -0.0000
vn 1.0000 0.0000 -0.0000
vn 0.9945 0.0000 0.1046
vn 0.9945 0.0000 0.1046
vn 0.9945 0.0000 0.1046
vn 1.0000 0.0000 -0.0000
vn -0.9775 0.0000 -0.2108
vn -0.9775 0.0000 -0.2108
vn -0.9944 0.0000 -0.1060
vn -0.9944 0.0000 -0.1060
vn -0.9944 0.0000 -0.1060
vn -0.9775 0.0000 -0.2108
# 60 vertex normals

vt 1.0000 0.0000 0.0000
vt 0.0000 0.0000 0.0000
vt 1.0000 1.0000 0.0000
vt 0.0000 1.0000 0.0000
vt 0.0000 0.0000 0.0000
vt 1.0000 0.0000 0.0000
vt 0.0000 1.0000 0.0000
vt 1.0000 1.0000 0.0000
vt 0.0000 0.0000 0.0000
vt 1.0000 0.0000 0.0000
vt 0.0000 1.0000 0.0000
vt 1.0000 1.0000 0.0000
vt 0.0000 0.0000 0.0000
vt 1.0000 0.0000 0.0000
vt 0.0000 1.0000 0.0000
vt 1.0000 1.0000 0.0000
vt 0.0000 0.0000 0.0000
vt 1.0000 0.0000 0.0000
vt 0.0000 1.0000 0.0000
vt 1.0000 1.0000 0.0000
vt 0.0000 0.0000 0.0000
vt 1.0000 0.0000 0.0000
vt 0.0000 1.0000 0.0000
vt 1.0000 1.0000 0.0000
vt 1.0000 0.7950 0.0000
vt 0.2050 0.0000 0.0000
vt 0.0000 0.7950 0.0000
vt 0.7950 0.0000 0.0000
vt 1.0000 0.7950 0.0000
vt 0.7950 1.0000 0.0000
vt 0.0000 0.7950 0.0000
vt 0.2050 1.0000 0.0000
# 32 texture coords

o wrapper8
g wrapper8
s 1
f 9/25/1 10/27/2 2/2/3 
f 2/2/4 1/1/5 9/25/6 
f 6/6/7 11/29/8 12/31/9 
f 12/31/10 5/5/11 6/6/12 
f 1/9/13 2/10/14 6/12/15 
f 6/12/16 5/11/17 1/9/18 
f 10/28/19 11/30/20 6/15/21 
f 6/15/22 2/13/23 10/28/24 
f 4/17/25 3/18/26 7/20/27 
f 7/20/28 8/19/29 4/17/30 
f 9/26/31 12/32/32 7/23/33 
f 7/23/34 3/21/35 9/26/36 
f 3/3/37 4/4/38 10/27/39 
f 10/27/40 9/25/41 3/3/42 
f 8/8/43 7/7/44 12/31/45 
f 12/31/46 11/29/47 8/8/48 
f 4/14/49 8/16/50 11/30/51 
f 11/30/52 10/28/53 4/14/54 
f 1/22/55 5/24/56 12/32/57 
f 12/32/58 9/26/59 1/22/60 
# 0 polygons - 20 triangles

