# 3ds Max Wavefront OBJ Exporter v0.97b - (c)2007 guruware
# File Created: 18.09.2019 09:20:34

#
# object wrapper2
#

v  18570.0645 -5.1399 3507.8416
v  20204.1680 -5.1399 3861.1465
v  19850.2793 -5.1399 -2476.1294
v  21484.3809 -5.1399 -2122.8242
v  18570.0645 2332.4924 3507.8416
v  20204.1660 2332.4924 3861.1467
v  19850.2793 2332.4924 -2476.1294
v  21484.3809 2332.4924 -2122.8242
# 8 vertices

vn 0.0000 -1.0000 -0.0000
vn 0.0000 -1.0000 -0.0000
vn 0.0000 -1.0000 -0.0000
vn 0.0000 -1.0000 -0.0000
vn 0.0000 -1.0000 -0.0000
vn 0.0000 -1.0000 -0.0000
vn 0.0000 1.0000 -0.0000
vn 0.0000 1.0000 -0.0000
vn 0.0000 1.0000 -0.0000
vn 0.0000 1.0000 -0.0000
vn 0.0000 1.0000 -0.0000
vn 0.0000 1.0000 -0.0000
vn 0.0000 0.0000 1.0000
vn 0.0000 0.0000 1.0000
vn 0.0000 0.0000 1.0000
vn 0.0000 0.0000 1.0000
vn 0.0000 0.0000 1.0000
vn 0.0000 0.0000 1.0000
vn 1.0000 0.0000 -0.0000
vn 1.0000 0.0000 -0.0000
vn 1.0000 0.0000 -0.0000
vn 1.0000 0.0000 -0.0000
vn 1.0000 0.0000 -0.0000
vn 1.0000 0.0000 -0.0000
vn 0.0000 0.0000 -1.0000
vn 0.0000 0.0000 -1.0000
vn 0.0000 0.0000 -1.0000
vn 0.0000 0.0000 -1.0000
vn 0.0000 0.0000 -1.0000
vn 0.0000 0.0000 -1.0000
vn -1.0000 0.0000 -0.0000
vn -1.0000 0.0000 -0.0000
vn -1.0000 0.0000 -0.0000
vn -1.0000 0.0000 -0.0000
vn -1.0000 0.0000 -0.0000
vn -1.0000 0.0000 -0.0000
# 36 vertex normals

vt 1.0000 0.0000 0.0000
vt 0.0000 0.0000 0.0000
vt 1.0000 1.0000 0.0000
vt 0.0000 1.0000 0.0000
vt 0.0000 0.0000 0.0000
vt 1.0000 0.0000 0.0000
vt 0.0000 1.0000 0.0000
vt 1.0000 1.0000 0.0000
vt 0.0000 0.0000 0.0000
vt 1.0000 0.0000 0.0000
vt 0.0000 1.0000 0.0000
vt 1.0000 1.0000 0.0000
vt 0.0000 0.0000 0.0000
vt 1.0000 0.0000 0.0000
vt 0.0000 1.0000 0.0000
vt 1.0000 1.0000 0.0000
vt 0.0000 0.0000 0.0000
vt 1.0000 0.0000 0.0000
vt 0.0000 1.0000 0.0000
vt 1.0000 1.0000 0.0000
vt 0.0000 0.0000 0.0000
vt 1.0000 0.0000 0.0000
vt 0.0000 1.0000 0.0000
vt 1.0000 1.0000 0.0000
# 24 texture coords

o wrapper2
g wrapper2
s 1
f 1/1/1 3/3/2 4/4/3 
f 4/4/4 2/2/5 1/1/6 
f 5/5/7 6/6/8 8/8/9 
f 8/8/10 7/7/11 5/5/12 
f 1/9/13 2/10/14 6/12/15 
f 6/12/16 5/11/17 1/9/18 
f 2/13/19 4/14/20 8/16/21 
f 8/16/22 6/15/23 2/13/24 
f 4/17/25 3/18/26 7/20/27 
f 7/20/28 8/19/29 4/17/30 
f 3/21/31 1/22/32 5/24/33 
f 5/24/34 7/23/35 3/21/36 
# 0 polygons - 12 triangles

