# 3ds Max Wavefront OBJ Exporter v0.97b - (c)2007 guruware
# File Created: 05.10.2019 17:01:30

#
# object wrapper8
#

v  215.5943 -4.9933 -820.5571
v  1051.3159 -4.9933 -739.6334
v  889.5323 -4.9933 11.3141
v  72.3254 -4.9933 -164.6169
v  889.5322 1165.5032 11.3141
v  1051.3159 1165.5032 -739.6335
v  215.5943 1165.5032 -820.5571
v  72.3254 1165.5032 -164.6168
v  1052.4380 -4.9933 -4219.9419
v  216.5110 -4.9933 -4222.1221
v  216.5110 1165.5032 -4222.1221
v  1052.4380 1165.5032 -4219.9419
# 12 vertices

vn 0.0000 -1.0000 -0.0000
vn 0.0000 1.0000 -0.0000
vn -0.2079 0.0000 0.9781
vn 0.9945 0.0000 0.1046
vn 0.9781 0.0000 0.2081
vn 0.0000 0.0000 -1.0000
vn -0.9944 0.0000 -0.1060
vn -1.0000 0.0000 -0.0000
vn 1.0000 0.0000 -0.0000
vn -0.9775 0.0000 -0.2108
# 10 vertex normals

vt 1.0000 0.7950 0.0000
vt 0.0000 0.7950 0.0000
vt 0.0000 0.0000 0.0000
vt 1.0000 0.0000 0.0000
vt 1.0000 1.0000 0.0000
vt 0.0000 1.0000 0.0000
vt 0.7950 0.0000 0.0000
vt 0.7950 1.0000 0.0000
vt 0.2050 0.0000 0.0000
vt 0.2050 1.0000 0.0000
# 10 texture coords

o wrapper8
g wrapper8
s 1
f 1/1/1 2/2/1 3/3/1 
f 3/3/1 4/4/1 1/1/1 
f 5/4/2 6/1/2 7/2/2 
f 7/2/2 8/3/2 5/4/2 
f 4/3/3 3/4/3 5/5/3 
f 5/5/3 8/6/3 4/3/3 
f 2/7/4 6/8/4 5/6/5 
f 5/6/5 3/3/5 2/7/4 
f 9/3/6 10/4/6 11/5/6 
f 11/5/6 12/6/6 9/3/6 
f 1/9/7 7/10/7 11/6/8 
f 11/6/8 10/3/8 1/9/7 
f 10/5/1 9/6/1 2/2/1 
f 2/2/1 1/1/1 10/5/1 
f 12/5/2 11/6/2 7/2/2 
f 7/2/2 6/1/2 12/5/2 
f 9/4/9 12/5/9 6/8/4 
f 6/8/4 2/7/4 9/4/9 
f 4/4/10 8/5/10 7/10/7 
f 7/10/7 1/9/7 4/4/10 
# 20 faces

