# 3ds Max Wavefront OBJ Exporter v0.97b - (c)2007 guruware
# File Created: 25.09.2019 13:33:54

mtllib paporotnik.mtl

#
# object Paporotnik
#

v  29.7739 0.0000 -51.5698
v  -29.7739 -0.0000 51.5702
v  235.8135 38.0331 67.3871
v  176.2656 38.0331 170.5271
v  301.8855 15.0768 105.5338
v  242.3376 15.0768 208.6738
v  0.0000 0.0000 -59.5477
v  0.0000 -0.0000 59.5481
v  173.3766 81.7148 -59.5478
v  173.3766 81.7147 59.5480
v  242.2211 94.1315 -59.5478
v  242.2211 94.1314 59.5480
v  29.7740 0.0000 -51.5700
v  -29.7739 -0.0000 51.5700
v  134.8599 108.4379 9.1013
v  75.3120 108.4378 112.2413
v  179.2046 133.6324 34.7038
v  119.6567 133.6324 137.8438
v  16.0755 -24.7375 -59.4787
v  -43.4724 -24.7375 43.6613
v  82.7049 118.6624 -21.0102
v  23.1570 118.6624 82.1298
v  116.9127 159.8507 -1.2603
v  57.3648 159.8506 101.8797
v  29.7738 0.0000 51.5700
v  -29.7741 0.0001 -51.5700
v  -176.2658 38.0331 170.5270
v  -235.8137 38.0331 67.3869
v  -242.3378 15.0768 208.6737
v  -301.8857 15.0769 105.5337
v  51.5698 0.0000 29.7740
v  -51.5702 0.0000 -29.7739
v  -35.1184 81.7147 179.9225
v  -138.2584 81.7148 120.3746
v  -69.5407 94.1314 239.5437
v  -172.6807 94.1314 179.9957
v  29.7739 -0.0000 51.5701
v  -29.7740 0.0000 -51.5699
v  -75.3120 108.4378 112.2415
v  -134.8598 108.4379 9.1015
v  -119.6567 133.6324 137.8439
v  -179.2046 133.6325 34.7039
v  43.4723 -24.7375 43.6612
v  -16.0756 -24.7375 -59.4788
v  -23.1571 118.6624 82.1297
v  -82.7050 118.6625 -21.0103
v  -57.3649 159.8507 101.8796
v  -116.9128 159.8507 -1.2604
v  -29.7741 -0.0000 51.5698
v  29.7738 0.0000 -51.5702
v  -235.8136 38.0332 -67.3872
v  -176.2657 38.0332 -170.5272
v  -301.8856 15.0769 -105.5339
v  -242.3377 15.0769 -208.6739
v  -0.0002 -0.0000 59.5477
v  -0.0002 -0.0000 -59.5481
v  -173.3767 81.7147 59.5478
v  -173.3767 81.7148 -59.5481
v  -242.2213 94.1314 59.5478
v  -242.2212 94.1315 -59.5481
v  -29.7741 -0.0001 51.5700
v  29.7738 -0.0000 -51.5700
v  -134.8600 108.4379 -9.1014
v  -75.3121 108.4379 -112.2413
v  -179.2047 133.6325 -34.7038
v  -119.6568 133.6325 -137.8438
v  -16.0757 -24.7375 59.4787
v  43.4722 -24.7375 -43.6613
v  -82.7050 118.6624 21.0102
v  -23.1571 118.6624 -82.1298
v  -116.9128 159.8507 1.2603
v  -57.3649 159.8507 -101.8797
v  -59.5477 0.0000 -0.0000
v  59.5481 0.0000 -0.0000
v  -59.5477 38.0332 -237.9140
v  59.5482 38.0332 -237.9140
v  -59.5476 15.0770 -314.2074
v  59.5482 15.0770 -314.2074
v  -51.5698 -0.0000 29.7739
v  51.5702 -0.0000 -29.7740
v  -138.2581 81.7148 -120.3746
v  -35.1181 81.7148 -179.9225
v  -172.6804 94.1315 -179.9957
v  -69.5404 94.1315 -239.5436
v  -59.5479 -0.0000 0.0001
v  59.5479 -0.0000 0.0001
v  -59.5479 108.4379 -121.3427
v  59.5479 108.4379 -121.3427
v  -59.5479 133.6325 -172.5475
v  59.5480 133.6325 -172.5475
v  -59.5478 -24.7375 15.8176
v  59.5480 -24.7375 15.8176
v  -59.5477 118.6625 -61.1193
v  59.5481 118.6624 -61.1193
v  -59.5477 159.8507 -100.6191
v  59.5481 159.8507 -100.6191
v  -29.7738 0.0000 -51.5698
v  29.7741 -0.0000 51.5702
v  176.2657 38.0332 -170.5268
v  235.8137 38.0331 -67.3868
v  242.3378 15.0769 -208.6735
v  301.8857 15.0769 -105.5335
v  -51.5698 0.0000 -29.7738
v  51.5702 -0.0000 29.7741
v  35.1184 81.7148 -179.9223
v  138.2584 81.7148 -120.3744
v  69.5407 94.1315 -239.5435
v  172.6807 94.1315 -179.9955
v  -29.7739 -0.0000 -51.5699
v  29.7740 -0.0001 51.5701
v  75.3119 108.4379 -112.2413
v  134.8598 108.4378 -9.1013
v  119.6566 133.6325 -137.8437
v  179.2046 133.6324 -34.7037
v  -43.4723 -24.7375 -43.6610
v  16.0756 -24.7375 59.4790
v  23.1571 118.6625 -82.1295
v  82.7050 118.6624 21.0105
v  57.3648 159.8507 -101.8794
v  116.9128 159.8507 1.2606
v  59.5477 0.0000 0.0001
v  -59.5481 0.0000 0.0002
v  59.5478 38.0331 237.9141
v  -59.5480 38.0331 237.9142
v  59.5479 15.0768 314.2076
v  -59.5479 15.0768 314.2076
v  51.5699 0.0000 -29.7738
v  -51.5701 -0.0000 29.7742
v  138.2582 81.7147 120.3747
v  35.1183 81.7147 179.9226
v  172.6805 94.1314 179.9958
v  69.5406 94.1314 239.5437
v  59.5479 0.0000 0.0001
v  -59.5479 -0.0000 0.0001
v  59.5480 108.4378 121.3428
v  -59.5478 108.4378 121.3429
v  59.5480 133.6324 172.5477
v  -59.5478 133.6324 172.5477
v  59.5478 -24.7375 -15.8175
v  -59.5480 -24.7375 -15.8175
v  59.5478 118.6624 61.1195
v  -59.5480 118.6624 61.1195
v  59.5478 159.8507 100.6192
v  -59.5480 159.8507 100.6193
# 144 vertices

vn -0.1357 0.6788 -0.2325
vn -0.1357 0.6788 -0.2325
vn -0.0045 0.6880 -0.0632
vn 0.1172 0.6739 0.0958
vn 0.2437 0.6353 0.2630
vn 0.1172 0.6739 0.0958
vn -0.0045 0.6880 -0.0632
vn 0.2437 0.6353 0.2630
vn -0.4263 0.6222 -0.0518
vn -0.4263 0.6222 -0.0518
vn -0.3045 0.6552 -0.0546
vn -0.3045 0.6552 -0.0546
vn -0.1775 0.6769 -0.0564
vn -0.3045 0.6552 -0.0546
vn -0.3045 0.6552 -0.0546
vn -0.1775 0.6769 -0.0564
vn -0.5145 0.4743 -0.7064
vn -0.5145 0.4743 -0.7064
vn -0.4626 0.5249 -0.6434
vn -0.4240 0.5561 -0.5959
vn -0.3624 0.5969 -0.5194
vn -0.4240 0.5561 -0.5959
vn -0.4626 0.5249 -0.6434
vn -0.3624 0.5969 -0.5194
vn -0.6335 0.2909 -0.8453
vn -0.6335 0.2909 -0.8453
vn -0.6026 0.3529 -0.8105
vn -0.5879 0.3778 -0.7935
vn -0.5476 0.4352 -0.7461
vn -0.5879 0.3778 -0.7935
vn -0.6026 0.3529 -0.8105
vn -0.5476 0.4352 -0.7461
vn 0.1357 0.6788 -0.2325
vn 0.1357 0.6788 -0.2325
vn -0.1172 0.6739 0.0958
vn 0.0045 0.6880 -0.0632
vn -0.2437 0.6353 0.2630
vn 0.0045 0.6880 -0.0632
vn -0.1172 0.6739 0.0958
vn -0.2437 0.6353 0.2630
vn 0.1858 0.5606 -0.7690
vn 0.1858 0.5606 -0.7690
vn 0.1242 0.6392 -0.5363
vn 0.1530 0.6081 -0.6457
vn 0.0864 0.6676 -0.3916
vn 0.1530 0.6081 -0.6457
vn 0.1242 0.6392 -0.5363
vn 0.0864 0.6676 -0.3916
vn 0.5145 0.4743 -0.7064
vn 0.5145 0.4743 -0.7064
vn 0.4240 0.5561 -0.5959
vn 0.4626 0.5249 -0.6434
vn 0.3624 0.5969 -0.5194
vn 0.4626 0.5249 -0.6434
vn 0.4240 0.5561 -0.5959
vn 0.3624 0.5969 -0.5194
vn 0.6335 0.2909 -0.8453
vn 0.6335 0.2909 -0.8453
vn 0.5879 0.3778 -0.7935
vn 0.6026 0.3529 -0.8105
vn 0.5476 0.4352 -0.7461
vn 0.6026 0.3529 -0.8105
vn 0.5879 0.3778 -0.7935
vn 0.5476 0.4352 -0.7461
vn 0.1357 0.6699 0.1201
vn 0.1357 0.6699 0.1201
vn 0.0045 0.6877 -0.0514
vn -0.1172 0.6817 -0.2087
vn -0.2437 0.6514 -0.3702
vn -0.1172 0.6817 -0.2087
vn 0.0045 0.6877 -0.0514
vn -0.2437 0.6514 -0.3702
vn 0.4263 0.6222 -0.0518
vn 0.4263 0.6222 -0.0518
vn 0.3045 0.6552 -0.0546
vn 0.3045 0.6552 -0.0546
vn 0.1775 0.6769 -0.0564
vn 0.3045 0.6552 -0.0546
vn 0.3045 0.6552 -0.0546
vn 0.1775 0.6769 -0.0564
vn 0.5145 0.4403 0.6302
vn 0.5145 0.4403 0.6302
vn 0.4626 0.4943 0.5585
vn 0.4240 0.5280 0.5056
vn 0.3624 0.5730 0.4220
vn 0.4240 0.5280 0.5056
vn 0.4626 0.4943 0.5585
vn 0.3624 0.5730 0.4220
vn 0.6335 0.2490 0.8004
vn 0.6335 0.2490 0.8004
vn 0.6026 0.3131 0.7551
vn 0.5879 0.3389 0.7338
vn 0.5476 0.3990 0.6766
vn 0.5879 0.3389 0.7338
vn 0.6026 0.3131 0.7551
vn 0.5476 0.3990 0.6766
vn 0.0000 0.6516 0.2903
vn 0.0000 0.6516 0.2903
vn -0.0000 0.6872 -0.1913
vn -0.0000 0.6872 -0.1913
vn 0.0000 0.6182 -0.6437
vn -0.0000 0.6872 -0.1913
vn -0.0000 0.6872 -0.1913
vn 0.0000 0.6182 -0.6437
vn 0.1858 0.5238 0.6787
vn 0.1858 0.5238 0.6787
vn 0.1530 0.5777 0.5470
vn 0.1242 0.6146 0.4318
vn 0.0864 0.6505 0.2818
vn 0.1242 0.6146 0.4318
vn 0.1530 0.5777 0.5470
vn 0.0864 0.6505 0.2818
vn 0.0000 0.3330 1.0217
vn 0.0000 0.3330 1.0217
vn 0.0000 0.4164 0.9110
vn 0.0000 0.4164 0.9110
vn 0.0000 0.4910 0.7813
vn 0.0000 0.4164 0.9110
vn 0.0000 0.4164 0.9110
vn 0.0000 0.4910 0.7813
vn 0.0000 0.1640 1.1676
vn 0.0000 0.1640 1.1676
vn 0.0000 0.2293 1.1220
vn 0.0000 0.2293 1.1220
vn 0.0000 0.2924 1.0654
vn 0.0000 0.2293 1.1220
vn 0.0000 0.2293 1.1220
vn 0.0000 0.2924 1.0654
vn -0.1357 0.6699 0.1201
vn -0.1357 0.6699 0.1201
vn 0.1172 0.6817 -0.2087
vn -0.0045 0.6877 -0.0514
vn 0.2437 0.6514 -0.3702
vn -0.0045 0.6877 -0.0514
vn 0.1172 0.6817 -0.2087
vn 0.2437 0.6514 -0.3702
vn -0.1858 0.5238 0.6787
vn -0.1858 0.5238 0.6787
vn -0.1242 0.6146 0.4318
vn -0.1530 0.5777 0.5470
vn -0.0864 0.6505 0.2818
vn -0.1530 0.5777 0.5470
vn -0.1242 0.6146 0.4318
vn -0.0864 0.6505 0.2818
vn -0.5145 0.4403 0.6302
vn -0.5145 0.4403 0.6302
vn -0.4240 0.5280 0.5056
vn -0.4626 0.4943 0.5585
vn -0.3624 0.5730 0.4220
vn -0.4626 0.4943 0.5585
vn -0.4240 0.5280 0.5056
vn -0.3624 0.5730 0.4220
vn -0.6335 0.2490 0.8004
vn -0.6335 0.2490 0.8004
vn -0.5879 0.3389 0.7338
vn -0.6026 0.3131 0.7551
vn -0.5476 0.3990 0.6766
vn -0.6026 0.3131 0.7551
vn -0.5879 0.3389 0.7338
vn -0.5476 0.3990 0.6766
vn -0.0000 0.6692 -0.4003
vn -0.0000 0.6692 -0.4003
vn 0.0000 0.6803 0.0774
vn 0.0000 0.6803 0.0774
vn -0.0000 0.5879 0.5433
vn 0.0000 0.6803 0.0774
vn 0.0000 0.6803 0.0774
vn -0.0000 0.5879 0.5433
vn -0.1858 0.5606 -0.7690
vn -0.1858 0.5606 -0.7690
vn -0.1530 0.6081 -0.6457
vn -0.1242 0.6392 -0.5363
vn -0.0864 0.6676 -0.3916
vn -0.1242 0.6392 -0.5363
vn -0.1530 0.6081 -0.6457
vn -0.0864 0.6676 -0.3916
vn -0.0000 0.3866 -1.0816
vn -0.0000 0.3866 -1.0816
vn -0.0000 0.4646 -0.9844
vn -0.0000 0.4646 -0.9844
vn -0.0000 0.5330 -0.8667
vn -0.0000 0.4646 -0.9844
vn -0.0000 0.4646 -0.9844
vn -0.0000 0.5330 -0.8667
vn -0.0000 0.2243 -1.1999
vn -0.0000 0.2243 -1.1999
vn -0.0000 0.2876 -1.1650
vn -0.0000 0.2876 -1.1650
vn -0.0000 0.3480 -1.1188
vn -0.0000 0.2876 -1.1650
vn -0.0000 0.2876 -1.1650
vn -0.0000 0.3480 -1.1188
# 192 vertex normals

vt 0.0000 0.0000 0.0000
vt 1.0000 0.0000 0.0000
vt 0.0000 0.7500 0.0000
vt 1.0000 0.7500 0.0000
vt 0.0000 1.0000 0.0000
vt 1.0000 1.0000 0.0000
vt 0.0000 0.0000 0.0000
vt 1.0000 0.0000 0.0000
vt 0.0000 0.7500 0.0000
vt 1.0000 0.7500 0.0000
vt 0.0000 1.0000 0.0000
vt 1.0000 1.0000 0.0000
vt 0.0000 0.0000 0.0000
vt 1.0000 0.0000 0.0000
vt 0.0000 0.7500 0.0000
vt 1.0000 0.7500 0.0000
vt 0.0000 1.0000 0.0000
vt 1.0000 1.0000 0.0000
vt 0.0000 0.0000 0.0000
vt 1.0000 0.0000 0.0000
vt 0.0000 0.7500 0.0000
vt 1.0000 0.7500 0.0000
vt 0.0000 1.0000 0.0000
vt 1.0000 1.0000 0.0000
vt 0.0000 0.0000 0.0000
vt 1.0000 0.0000 0.0000
vt 0.0000 0.7500 0.0000
vt 1.0000 0.7500 0.0000
vt 0.0000 1.0000 0.0000
vt 1.0000 1.0000 0.0000
vt 0.0000 0.0000 0.0000
vt 1.0000 0.0000 0.0000
vt 0.0000 0.7500 0.0000
vt 1.0000 0.7500 0.0000
vt 0.0000 1.0000 0.0000
vt 1.0000 1.0000 0.0000
vt 0.0000 0.0000 0.0000
vt 1.0000 0.0000 0.0000
vt 0.0000 0.7500 0.0000
vt 1.0000 0.7500 0.0000
vt 0.0000 1.0000 0.0000
vt 1.0000 1.0000 0.0000
vt 0.0000 0.0000 0.0000
vt 1.0000 0.0000 0.0000
vt 0.0000 0.7500 0.0000
vt 1.0000 0.7500 0.0000
vt 0.0000 1.0000 0.0000
vt 1.0000 1.0000 0.0000
vt 0.0000 0.0000 0.0000
vt 1.0000 0.0000 0.0000
vt 0.0000 0.7500 0.0000
vt 1.0000 0.7500 0.0000
vt 0.0000 1.0000 0.0000
vt 1.0000 1.0000 0.0000
vt 0.0000 0.0000 0.0000
vt 1.0000 0.0000 0.0000
vt 0.0000 0.7500 0.0000
vt 1.0000 0.7500 0.0000
vt 0.0000 1.0000 0.0000
vt 1.0000 1.0000 0.0000
vt 0.0000 0.0000 0.0000
vt 1.0000 0.0000 0.0000
vt 0.0000 0.7500 0.0000
vt 1.0000 0.7500 0.0000
vt 0.0000 1.0000 0.0000
vt 1.0000 1.0000 0.0000
vt 0.0000 0.0000 0.0000
vt 1.0000 0.0000 0.0000
vt 0.0000 0.7500 0.0000
vt 1.0000 0.7500 0.0000
vt 0.0000 1.0000 0.0000
vt 1.0000 1.0000 0.0000
vt 0.0000 0.0000 0.0000
vt 1.0000 0.0000 0.0000
vt 0.0000 0.7500 0.0000
vt 1.0000 0.7500 0.0000
vt 0.0000 1.0000 0.0000
vt 1.0000 1.0000 0.0000
vt 0.0000 0.0000 0.0000
vt 1.0000 0.0000 0.0000
vt 0.0000 0.7500 0.0000
vt 1.0000 0.7500 0.0000
vt 0.0000 1.0000 0.0000
vt 1.0000 1.0000 0.0000
vt 0.0000 0.0000 0.0000
vt 1.0000 0.0000 0.0000
vt 0.0000 0.7500 0.0000
vt 1.0000 0.7500 0.0000
vt 0.0000 1.0000 0.0000
vt 1.0000 1.0000 0.0000
vt 0.0000 0.0000 0.0000
vt 1.0000 0.0000 0.0000
vt 0.0000 0.7500 0.0000
vt 1.0000 0.7500 0.0000
vt 0.0000 1.0000 0.0000
vt 1.0000 1.0000 0.0000
vt 0.0000 0.0000 0.0000
vt 1.0000 0.0000 0.0000
vt 0.0000 0.7500 0.0000
vt 1.0000 0.7500 0.0000
vt 0.0000 1.0000 0.0000
vt 1.0000 1.0000 0.0000
vt 0.0000 0.0000 0.0000
vt 1.0000 0.0000 0.0000
vt 0.0000 0.7500 0.0000
vt 1.0000 0.7500 0.0000
vt 0.0000 1.0000 0.0000
vt 1.0000 1.0000 0.0000
vt 0.0000 0.0000 0.0000
vt 1.0000 0.0000 0.0000
vt 0.0000 0.7500 0.0000
vt 1.0000 0.7500 0.0000
vt 0.0000 1.0000 0.0000
vt 1.0000 1.0000 0.0000
vt 0.0000 0.0000 0.0000
vt 1.0000 0.0000 0.0000
vt 0.0000 0.7500 0.0000
vt 1.0000 0.7500 0.0000
vt 0.0000 1.0000 0.0000
vt 1.0000 1.0000 0.0000
vt 0.0000 0.0000 0.0000
vt 1.0000 0.0000 0.0000
vt 0.0000 0.7500 0.0000
vt 1.0000 0.7500 0.0000
vt 0.0000 1.0000 0.0000
vt 1.0000 1.0000 0.0000
vt 0.0000 0.0000 0.0000
vt 1.0000 0.0000 0.0000
vt 0.0000 0.7500 0.0000
vt 1.0000 0.7500 0.0000
vt 0.0000 1.0000 0.0000
vt 1.0000 1.0000 0.0000
vt 0.0000 0.0000 0.0000
vt 1.0000 0.0000 0.0000
vt 0.0000 0.7500 0.0000
vt 1.0000 0.7500 0.0000
vt 0.0000 1.0000 0.0000
vt 1.0000 1.0000 0.0000
vt 0.0000 0.0000 0.0000
vt 1.0000 0.0000 0.0000
vt 0.0000 0.7500 0.0000
vt 1.0000 0.7500 0.0000
vt 0.0000 1.0000 0.0000
vt 1.0000 1.0000 0.0000
# 144 texture coords

o Paporotnik
g Paporotnik
usemtl Paporotnik
s 1
f 1/1/1 2/2/2 4/4/3 3/3/4 
f 5/5/5 3/3/6 4/4/7 6/6/8 
f 7/7/9 8/8/10 10/10/11 9/9/12 
f 11/11/13 9/9/14 10/10/15 12/12/16 
f 13/13/17 14/14/18 16/16/19 15/15/20 
f 17/17/21 15/15/22 16/16/23 18/18/24 
f 19/19/25 20/20/26 22/22/27 21/21/28 
f 23/23/29 21/21/30 22/22/31 24/24/32 
f 25/25/33 26/26/34 28/28/35 27/27/36 
f 29/29/37 27/27/38 28/28/39 30/30/40 
f 31/31/41 32/32/42 34/34/43 33/33/44 
f 35/35/45 33/33/46 34/34/47 36/36/48 
f 37/37/49 38/38/50 40/40/51 39/39/52 
f 41/41/53 39/39/54 40/40/55 42/42/56 
f 43/43/57 44/44/58 46/46/59 45/45/60 
f 47/47/61 45/45/62 46/46/63 48/48/64 
f 49/49/65 50/50/66 52/52/67 51/51/68 
f 53/53/69 51/51/70 52/52/71 54/54/72 
f 55/55/73 56/56/74 58/58/75 57/57/76 
f 59/59/77 57/57/78 58/58/79 60/60/80 
f 61/61/81 62/62/82 64/64/83 63/63/84 
f 65/65/85 63/63/86 64/64/87 66/66/88 
f 67/67/89 68/68/90 70/70/91 69/69/92 
f 71/71/93 69/69/94 70/70/95 72/72/96 
f 73/73/97 74/74/98 76/76/99 75/75/100 
f 77/77/101 75/75/102 76/76/103 78/78/104 
f 79/79/105 80/80/106 82/82/107 81/81/108 
f 83/83/109 81/81/110 82/82/111 84/84/112 
f 85/85/113 86/86/114 88/88/115 87/87/116 
f 89/89/117 87/87/118 88/88/119 90/90/120 
f 91/91/121 92/92/122 94/94/123 93/93/124 
f 95/95/125 93/93/126 94/94/127 96/96/128 
f 97/97/129 98/98/130 100/100/131 99/99/132 
f 101/101/133 99/99/134 100/100/135 102/102/136 
f 103/103/137 104/104/138 106/106/139 105/105/140 
f 107/107/141 105/105/142 106/106/143 108/108/144 
f 109/109/145 110/110/146 112/112/147 111/111/148 
f 113/113/149 111/111/150 112/112/151 114/114/152 
f 115/115/153 116/116/154 118/118/155 117/117/156 
f 119/119/157 117/117/158 118/118/159 120/120/160 
f 121/121/161 122/122/162 124/124/163 123/123/164 
f 125/125/165 123/123/166 124/124/167 126/126/168 
f 127/127/169 128/128/170 130/130/171 129/129/172 
f 131/131/173 129/129/174 130/130/175 132/132/176 
f 133/133/177 134/134/178 136/136/179 135/135/180 
f 137/137/181 135/135/182 136/136/183 138/138/184 
f 139/139/185 140/140/186 142/142/187 141/141/188 
f 143/143/189 141/141/190 142/142/191 144/144/192 
# 48 polygons

