# 3ds Max Wavefront OBJ Exporter v0.97b - (c)2007 guruware
# File Created: 05.10.2019 16:05:21

mtllib el2.mtl

#
# object El_Low02
#

v  9.5259 0.0000 -391.3777
v  9.5259 0.0000 311.2210
v  9.5258 1250.3163 311.2210
v  9.5258 1250.3163 -391.3777
v  -351.2997 0.0000 -23.8690
v  351.2990 0.0000 -23.8690
v  351.2990 1250.3163 -23.8689
v  -351.2997 1250.3163 -23.8689
v  -238.8800 0.0000 -288.4846
v  257.9323 0.0000 208.3277
v  257.9322 1250.3163 208.3280
v  -238.8802 1250.3163 -288.4844
v  -248.4063 0.0000 224.5372
v  248.4060 0.0000 -272.2751
v  248.4060 1250.3163 -272.2749
v  -248.4063 1250.3163 224.5374
# 16 vertices

vn -1.0000 0.0000 -0.0000
vn 0.0000 0.0000 1.0000
vn -0.7071 0.0000 0.7071
vn 0.7071 0.0000 0.7071
# 4 vertex normals

vt 0.7715 0.0098 0.0000
vt 0.9894 0.0098 0.0000
vt 0.9894 0.3976 0.0000
vt 0.7715 0.3976 0.0000
vt 0.7723 0.4033 0.0000
vt 0.9902 0.4033 0.0000
vt 0.9902 0.7911 0.0000
vt 0.7723 0.7911 0.0000
# 8 texture coords

o El_Low02
g El_Low02
usemtl el2
s 2
f 1/1/1 2/2/1 3/3/1 
f 3/3/1 4/4/1 1/1/1 
f 5/5/2 6/6/2 7/7/2 
f 7/7/2 8/8/2 5/5/2 
f 9/1/3 10/2/3 11/3/3 
f 11/3/3 12/4/3 9/1/3 
f 13/5/4 14/6/4 15/7/4 
f 15/7/4 16/8/4 13/5/4 
# 8 faces

