# 3ds Max Wavefront OBJ Exporter v0.97b - (c)2007 guruware
# File Created: 05.10.2019 16:06:01

mtllib el3.mtl

#
# object El_Low01
#

v  288.8188 0.0000 199.9875
v  -288.8185 0.0000 -199.9877
v  -288.8184 1250.3163 -199.9879
v  288.8189 1250.3163 199.9872
v  222.1875 0.0000 -273.4471
v  -177.7877 0.0000 304.1902
v  -177.7877 1250.3163 304.1901
v  222.1874 1250.3163 -273.4472
v  345.6385 0.0000 -62.8131
v  -345.6378 0.0000 62.8129
v  -345.6381 1250.3163 62.8128
v  345.6385 1250.3163 -62.8132
v  -40.6129 0.0000 -330.2666
v  85.0130 0.0000 361.0097
v  85.0128 1250.3163 361.0099
v  -40.6133 1250.3163 -330.2667
# 16 vertices

vn 0.5693 0.0000 -0.8221
vn -0.8221 0.0000 -0.5693
vn -0.1788 0.0000 -0.9839
vn -0.9839 0.0000 0.1788
# 4 vertex normals

vt 0.0098 0.4027 0.0000
vt 0.2277 0.4027 0.0000
vt 0.2277 0.7904 0.0000
vt 0.0098 0.7904 0.0000
vt 0.2402 0.4027 0.0000
vt 0.4581 0.4027 0.0000
vt 0.4581 0.7904 0.0000
vt 0.2402 0.7904 0.0000
# 8 texture coords

o El_Low01
g El_Low01
usemtl el
s 2
f 1/1/1 2/2/1 3/3/1 
f 3/3/1 4/4/1 1/1/1 
f 5/5/2 6/6/2 7/7/2 
f 7/7/2 8/8/2 5/5/2 
f 9/1/3 10/2/3 11/3/3 
f 11/3/3 12/4/3 9/1/3 
f 13/5/4 14/6/4 15/7/4 
f 15/7/4 16/8/4 13/5/4 
# 8 faces

